<svg width="30.000000" height="30.000000" viewBox="0 0 30 30" fill="none" xmlns="http://www.w3.org/2000/svg" xmlns:xlink="http://www.w3.org/1999/xlink">
	<desc>
			Created with Pixso.
	</desc>
	<defs/>
	<path id="стрелка" d="M30 15C30 6.71 23.28 0 15 0C6.71 0 0 6.71 0 15C0 23.28 6.71 30 15 30C23.28 30 30 23.28 30 15ZM2.9 15C2.9 8.31 8.31 2.9 15 2.9C21.68 2.9 27.09 8.31 27.09 15C27.09 21.68 21.68 27.09 15 27.09C8.31 27.09 2.9 21.68 2.9 15ZM7.25 16.2L7.25 13.79C7.25 13.39 7.58 13.06 7.98 13.06L15 13.06L15 9.01C15 8.36 15.78 8.04 16.23 8.49L22.22 14.48C22.51 14.77 22.51 15.22 22.22 15.51L16.23 21.5C15.78 21.96 15 21.63 15 20.98L15 16.93L7.98 16.93C7.58 16.93 7.25 16.6 7.25 16.2Z" fill="#FFFFFF" fill-opacity="1.000000" fill-rule="nonzero"/>
</svg>
