<svg width="392.000000" height="152.000000" viewBox="0 0 392 152" fill="none" xmlns="http://www.w3.org/2000/svg" xmlns:xlink="http://www.w3.org/1999/xlink">
	<desc>
			Created with Pixso.
	</desc>
	<defs/>
	<circle id="Ellipse 1" cx="149.000000" cy="70.000000" r="50.000000" fill="#020202" fill-opacity="1.000000"/>
	<path id="2" d="M133.35 51.53L135.77 51.53L138.84 37.79Q140.67 37.21 142.19 36.92Q143.74 36.64 145.75 36.64Q148.42 36.64 150.49 37.7Q151.44 38.18 152.25 38.83Q153.23 39.61 154 40.63Q155.43 42.5 156.16 44.99Q156.89 47.47 156.89 50.26Q156.89 54.29 155.29 58.72Q153.72 63.13 151.21 67.6Q148.73 72.06 145.5 76.39Q142.28 80.71 139.03 84.55Q135.77 88.37 132.75 91.56Q129.72 94.72 127.61 96.92L127.61 100L167.25 100Q167.25 98.26 167.15 95.92Q167.06 93.57 166.92 91.02Q166.78 88.46 166.57 85.98Q166.38 83.47 166.19 81.36L163.8 81.36L159.09 92.12L142.59 92.12L137.2 92.71L137.2 92.31L141.23 88.58Q144.89 85.02 149.2 80.33Q153.53 75.62 157.21 70.3Q160.92 64.96 163.4 59.31Q165.91 53.64 165.91 48.25Q165.91 46.11 165.46 44.08Q165.22 43.01 164.85 41.96Q164.38 40.6 163.65 39.38Q162.77 37.9 161.53 36.64Q159.28 34.32 155.81 32.99Q152.36 31.65 147.58 31.65Q142.1 31.65 137.39 33.34Q132.7 35 129.32 37.89Q130.1 41.24 131.2 44.99Q132.3 48.74 133.35 51.53Z" fill="#FFFFFF" fill-opacity="1.000000" fill-rule="evenodd"/>
	<path id="to rent" d="M8.16 51.28Q4.65 52.27 1.42 54.29L1.42 56.8L9.11 56.8L9.11 87.32Q9.11 94.63 12.14 97.89Q12.52 98.3 12.96 98.67Q15.9 101.14 20.92 101.14Q22.22 101.14 23.48 100.94Q24.37 100.8 25.24 100.56Q27.35 100 29.13 99.13Q30.91 98.26 32.29 97.3Q33.7 96.34 34.45 95.47L33.79 94.04Q31.96 94.72 29.36 94.96Q26.78 95.19 25.05 95.19Q22.35 95.19 20.65 93.89Q20.04 93.43 19.57 92.8Q17.76 90.39 17.76 84.64L17.76 56.8L32.15 56.8L32.15 52L17.76 52L17.76 39.41L15.35 39.41Q13.73 40.18 12.04 41Q10.35 41.82 9.11 42.88L9.11 51.03Q8.63 51.15 8.16 51.28ZM355.68 51.28Q352.17 52.27 348.95 54.29L348.95 56.8L356.63 56.8L356.63 87.32Q356.63 94.63 359.66 97.89Q360.04 98.3 360.48 98.67Q363.42 101.14 368.45 101.14Q369.74 101.14 371 100.94Q371.89 100.8 372.76 100.56Q374.87 100 376.65 99.13Q378.43 98.26 379.81 97.3Q381.22 96.34 381.97 95.47L381.31 94.04Q379.48 94.72 376.88 94.96Q374.3 95.19 372.57 95.19Q369.87 95.19 368.17 93.89Q367.56 93.43 367.09 92.8Q365.28 90.39 365.28 84.64L365.28 56.8L379.67 56.8L379.67 52L365.28 52L365.28 39.41L362.87 39.41Q361.25 40.18 359.56 41Q357.87 41.82 356.63 42.88L356.63 51.03Q356.16 51.15 355.68 51.28ZM226.11 61.56Q227.7 59.78 228.75 59.19L241.53 59.19L241.53 56.71Q241.06 55.07 240.52 53.59Q240 52.09 239.32 50.85Q237.9 50.69 236.52 50.87Q235.37 51.01 234.26 51.39Q233.16 51.74 232.14 52.25Q230.9 52.88 229.76 53.73Q227.8 55.18 226.26 56.99Q226.18 57.08 226.11 57.17Q224.53 59.1 223.67 61.02L223.29 61.02L223.29 50.85L220.9 50.85Q217.93 51.32 214.64 52.14Q212.61 52.65 210.65 53.36Q209.47 53.79 208.32 54.29L208.32 56.8L214.64 57.57L214.64 95.28Q213.12 95.68 211.57 96.17Q210.05 96.64 208.32 97.6L208.32 100L230.98 100L230.98 97.6Q229.06 96.55 227.14 96.01Q225.21 95.47 223.29 95.28L223.29 66.78Q224.53 63.32 226.11 61.56ZM41.12 65.31Q39.55 69.95 39.55 76Q39.55 81.67 40.93 86.33Q42.34 90.97 45.1 94.3Q45.77 95.09 46.52 95.8Q48.9 98.03 52.11 99.39Q56.35 101.14 62.1 101.14Q69.66 101.14 74.97 97.68Q76.95 96.4 78.62 94.63Q78.74 94.5 78.86 94.36Q84.76 87.84 84.76 76Q84.76 70.32 83.47 65.73Q82.18 61.11 79.44 57.81Q79.04 57.33 78.62 56.88Q76.07 54.22 72.36 52.67Q68.05 50.85 62.1 50.85Q57.01 50.85 52.84 52.53Q50.3 53.55 48.2 55.15Q46.85 56.17 45.69 57.43Q42.71 60.64 41.12 65.31ZM282.61 96.36Q284.25 94.91 285.02 93.27L283.66 91.75Q281.95 93.27 278.48 94.23Q275.04 95.19 271.66 95.19Q267.54 95.19 264.47 93.71Q262.28 92.64 260.63 91.03Q259.96 90.38 259.38 89.64Q257.37 87.03 256.36 83.54Q255.35 80.03 255.35 76L285.31 76Q285.68 74.07 285.82 72.41Q285.98 70.72 285.98 69.08Q285.98 63.9 284.39 60.41Q282.82 56.89 280.27 54.78Q279.47 54.12 278.61 53.58Q276.71 52.39 274.45 51.76Q272.41 51.19 270.32 50.97Q269.09 50.85 267.84 50.85Q259.88 50.85 254.68 54.64Q253.11 55.79 251.79 57.29Q246.14 63.71 246.14 76Q246.14 81.76 247.62 86.38Q249.12 90.97 252 94.3Q252.6 94.99 253.27 95.62Q255.79 97.98 259.2 99.39Q263.51 101.14 269.18 101.14Q271.1 101.14 272.95 100.8Q273.61 100.68 274.27 100.51Q276.77 99.9 278.88 98.85Q280.99 97.79 282.61 96.36ZM325.25 100L345.87 100L345.87 97.6Q343.39 95.96 339.55 95.28L339.55 71Q339.55 65.05 338.49 61.16Q337.44 57.27 335.42 54.97Q334.63 54.07 333.69 53.39Q332.22 52.32 330.38 51.76Q327.36 50.85 323.51 50.85Q319.89 50.85 316.98 52.29Q315.58 52.98 314.35 54.01Q312.16 55.84 310.56 58.09Q309.39 59.73 308.54 61.6L308.44 61.6L308.44 50.85L306.05 50.85Q302.49 51.53 299.21 52.39Q295.95 53.24 293.47 54.29L293.47 56.8L299.8 57.57L299.8 95.28Q295.86 96.34 293.47 97.6L293.47 100L314.21 100L314.21 97.6Q311.42 95.87 308.44 95.28L308.44 67.25Q308.48 67.15 308.51 67.06Q309.18 65.15 310.27 63.39Q311.17 61.92 312.32 60.7Q312.65 60.36 312.99 60.03Q313.51 59.55 314.08 59.12Q315.26 58.25 316.65 57.67Q316.71 57.64 316.77 57.61Q318.78 56.8 321.12 56.8Q324.71 56.8 326.86 58.56Q328.04 59.52 328.79 61.02Q330.9 65.24 330.9 72.55L330.9 95.28Q327.83 96.25 325.25 97.6L325.25 100ZM49.58 84.15Q48.76 80.31 48.76 76Q48.76 65.24 52.2 60.15Q54.26 57.13 57.1 55.91Q59.04 55.07 61.35 55.07Q65.07 55.07 67.77 56.71Q68.52 57.16 69.19 57.7Q70.94 59.11 72.17 61.16Q73.91 64 74.73 67.79Q75.55 71.59 75.55 76Q75.55 86.75 72.22 91.84Q70.01 95.24 66.96 96.37Q65.45 96.92 63.74 96.92Q59.7 96.92 56.82 95.31Q55.5 94.55 54.4 93.55Q53.12 92.36 52.16 90.83Q50.4 88 49.58 84.15ZM261.13 56.84Q263.67 55.07 267.45 55.07Q270.54 55.07 272.6 56.53Q273.8 57.38 274.64 58.72Q276.96 62.35 276.96 68.52Q276.96 69.27 276.91 70.09Q276.87 70.91 276.77 71.78L255.63 71.78Q256.22 62.45 259.1 58.77Q259.99 57.63 261.13 56.84Z" fill="#888888" fill-opacity="1.000000" fill-rule="evenodd"/>
	<path id="дома и квартиры" d="M214.12 136.32Q213.73 137.48 213.73 139Q213.73 140.41 214.08 141.58Q214.43 142.74 215.12 143.57Q215.29 143.77 215.48 143.95Q216.07 144.5 216.87 144.84Q217.93 145.28 219.37 145.28Q221.26 145.28 222.59 144.42Q223.08 144.1 223.5 143.65Q223.53 143.62 223.56 143.59Q225.03 141.96 225.03 139Q225.03 137.58 224.71 136.43Q224.39 135.27 223.7 134.45Q223.61 134.33 223.5 134.22Q222.86 133.55 221.93 133.17Q220.86 132.71 219.37 132.71Q218.1 132.71 217.05 133.13Q216.42 133.38 215.89 133.78Q215.56 134.04 215.27 134.35Q214.52 135.16 214.12 136.32ZM253.5 142.77Q253.47 142.38 253.47 141.85Q253.47 140.63 253.53 139.3Q253.6 137.96 253.6 136.52Q253.6 136.35 253.59 136.17Q253.56 135.67 253.47 135.18Q253.4 134.79 253.24 134.44Q253.13 134.19 252.97 133.96Q252.59 133.41 251.86 133.06Q251.12 132.71 249.9 132.71Q248.53 132.71 247.41 133.02Q246.3 133.33 245.39 133.89Q245.43 134.63 245.62 135.4Q245.8 136.17 246.04 136.89L246.66 136.89L247.79 134Q248.14 133.86 248.49 133.81Q248.55 133.8 248.62 133.8Q249.04 133.76 249.37 133.76Q250.09 133.76 250.53 134.09Q250.58 134.12 250.62 134.16Q251 134.47 251.21 135Q251.43 135.59 251.47 136.42Q251.5 137.24 251.41 138.27Q249.73 138.37 248.46 138.56Q247.19 138.73 246.32 139.14Q245.56 139.5 245.12 140.1Q245.06 140.17 245.01 140.25Q244.57 140.96 244.57 142.07Q244.57 143.06 245.01 143.79Q245.21 144.12 245.49 144.4Q245.74 144.63 246.02 144.8Q246.81 145.28 247.88 145.28Q248.65 145.28 249.25 145.04Q249.85 144.8 250.29 144.42Q250.68 144.08 250.94 143.67Q250.98 143.61 251.01 143.54Q251.29 143.05 251.39 142.57L251.5 142.57Q251.53 143.36 251.58 144.02Q251.63 144.68 251.87 145.24L252.47 145.24Q253.14 145.11 253.87 144.88Q254.6 144.64 255.2 144.32L255.2 143.82L253.55 143.58Q253.53 143.15 253.5 142.77ZM317.62 142.77Q317.6 142.38 317.6 141.85Q317.6 140.63 317.66 139.3Q317.72 137.96 317.72 136.52Q317.72 136.35 317.72 136.17Q317.69 135.67 317.6 135.18Q317.53 134.79 317.37 134.44Q317.26 134.19 317.1 133.96Q316.72 133.41 315.98 133.06Q315.25 132.71 314.03 132.71Q312.66 132.71 311.54 133.02Q310.43 133.33 309.51 133.89Q309.56 134.63 309.74 135.4Q309.93 136.17 310.17 136.89L310.79 136.89L311.92 134Q312.26 133.86 312.62 133.81Q312.68 133.8 312.74 133.8Q313.17 133.76 313.5 133.76Q314.22 133.76 314.66 134.09Q314.7 134.12 314.75 134.16Q315.13 134.47 315.33 135Q315.56 135.59 315.6 136.42Q315.63 137.24 315.54 138.27Q313.86 138.37 312.59 138.56Q311.31 138.73 310.45 139.14Q309.69 139.5 309.25 140.1Q309.19 140.17 309.14 140.25Q308.7 140.96 308.7 142.07Q308.7 143.06 309.14 143.79Q309.34 144.12 309.62 144.4Q309.87 144.63 310.15 144.8Q310.93 145.28 312.01 145.28Q312.78 145.28 313.38 145.04Q313.98 144.8 314.42 144.42Q314.81 144.08 315.07 143.67Q315.1 143.61 315.14 143.54Q315.42 143.05 315.51 142.57L315.63 142.57Q315.66 143.36 315.71 144.02Q315.76 144.68 316 145.24L316.59 145.24Q317.27 145.11 318 144.88Q318.73 144.64 319.33 144.32L319.33 143.82L317.68 143.58Q317.65 143.15 317.62 142.77ZM320.63 149.79L325.95 149.79L325.95 149.2Q325.53 148.93 325.14 148.8Q324.75 148.67 324.37 148.62L324.37 144.8Q324.97 145.07 325.47 145.17Q325.98 145.28 326.87 145.28Q328.14 145.28 329.18 144.83Q329.83 144.55 330.36 144.12Q330.68 143.85 330.96 143.54Q331.69 142.69 332.08 141.47Q332.48 140.24 332.48 138.73Q332.48 135.54 331.3 134.13Q330.95 133.7 330.52 133.41Q329.49 132.71 327.99 132.71Q326.75 132.71 325.92 133.3Q325.83 133.36 325.74 133.44Q324.88 134.17 324.4 135.4L324.37 135.4L324.37 132.71L323.77 132.71Q323 132.83 322.2 133.03Q322.12 133.05 322.04 133.07Q321.32 133.27 320.63 133.57L320.63 134.2L322.21 134.39L322.21 148.62Q321.44 148.81 320.63 149.2L320.63 149.79ZM360.4 149.79L365.72 149.79L365.72 149.2Q365.29 148.93 364.91 148.8Q364.52 148.67 364.14 148.62L364.14 144.8Q364.74 145.07 365.24 145.17Q365.75 145.28 366.64 145.28Q367.91 145.28 368.95 144.83Q369.6 144.55 370.12 144.12Q370.45 143.85 370.73 143.54Q371.46 142.69 371.85 141.47Q372.25 140.24 372.25 138.73Q372.25 135.54 371.07 134.13Q370.72 133.7 370.29 133.41Q369.26 132.71 367.76 132.71Q366.52 132.71 365.69 133.3Q365.6 133.36 365.51 133.44Q364.64 134.17 364.16 135.4L364.14 135.4L364.14 132.71L363.54 132.71Q362.77 132.83 361.97 133.03Q361.89 133.05 361.81 133.07Q361.09 133.27 360.4 133.57L360.4 134.2L361.98 134.39L361.98 148.62Q361.21 148.81 360.4 149.2L360.4 149.79ZM306.2 143.14Q306.63 142.45 306.63 141.49Q306.63 140.77 306.36 140.23Q306.2 139.92 305.98 139.66Q305.81 139.48 305.61 139.32Q305.15 138.95 304.53 138.73Q304.51 138.72 304.49 138.72Q303.9 138.51 303.25 138.47Q303.7 138.37 304.19 138.14Q304.67 137.92 305.05 137.58Q305.23 137.42 305.38 137.23Q305.55 137.03 305.67 136.79Q305.69 136.76 305.7 136.73Q305.91 136.3 305.91 135.75Q305.91 134.72 305.41 134.09Q305.14 133.76 304.74 133.54Q303.56 132.9 301.45 132.9Q301.02 132.9 300.66 132.91Q300.3 132.92 299.94 132.95Q299.58 132.97 299.17 132.98Q298.76 133 298.19 133L296.03 133L296.03 133.62Q296.7 134.03 297.61 134.2L297.61 143.82Q296.86 143.99 296.19 144.32Q296.11 144.36 296.03 144.4L296.03 145L298.33 145Q298.6 145 298.81 145.01Q299.03 145.02 299.34 145.04Q299.65 145.07 300.11 145.08Q300.56 145.09 301.33 145.09Q302.39 145.09 303.35 144.89Q304.31 144.68 305.04 144.25Q305.6 143.92 305.98 143.45Q306.1 143.3 306.2 143.14ZM200.07 148.55L201.16 145L210.1 145L211.19 148.55L211.79 148.55Q211.93 147.37 212 146.17Q212.07 144.97 212.05 143.82L209.92 143.82L209.92 134.2Q210.85 134.05 211.5 133.62L211.5 133L201.3 133L201.3 133.62Q201.64 133.86 202.04 134.07Q202.45 134.29 202.96 134.44Q202.96 136.57 202.73 138.17Q202.5 139.76 202.17 140.91Q201.85 142.04 201.49 142.76Q201.13 143.48 200.84 143.82L199.21 143.82Q199.21 144.97 199.27 146.17Q199.33 147.37 199.45 148.55L200.07 148.55ZM226.76 145L230.99 145L230.99 144.4Q230.41 144.08 229.55 143.82L229.91 134.1L230.1 134.1L233.99 145L234.63 145L238.57 134.1L238.76 134.1L239.24 143.82Q238.72 143.99 238.38 144.13Q238.04 144.27 237.8 144.4L237.8 145L242.89 145L242.89 144.4Q242.1 143.96 241.31 143.82L240.83 134.2Q241.33 134.1 241.71 133.96Q242.1 133.81 242.41 133.62L242.41 133L237.87 133L235.31 139.98L234.8 141.66L234.73 141.66L234.28 140L231.8 133L227.12 133L227.12 133.62Q227.44 133.81 227.82 134.03Q228.21 134.24 228.71 134.44L228.35 143.82Q227.55 144.01 226.76 144.4L226.76 145ZM267.61 133L262.53 133L262.53 133.62Q263.17 134.05 264.11 134.2L264.11 143.82Q263.7 143.94 263.31 144.08Q262.93 144.2 262.53 144.4L262.53 145L265.81 145L270.9 136.86L271.81 135.06L271.93 135.06L271.69 136.96L271.69 143.82Q271.06 143.98 270.49 144.27Q270.37 144.33 270.25 144.4L270.25 145L275.34 145L275.34 144.4Q275.03 144.2 274.62 144.08Q274.21 143.94 273.76 143.82L273.76 134.2Q274.57 134.05 275.34 133.62L275.34 133L272.1 133L266.97 141.2L266.03 143L265.91 143L266.17 140.77L266.17 134.2Q266.65 134.05 267 133.91Q267.35 133.76 267.61 133.62L267.61 133ZM294.54 133L289.91 133L289.91 133.62Q290.22 133.81 290.56 133.97Q290.91 134.13 291.32 134.29Q290.58 135.42 289.71 136.38Q288.85 137.34 287.89 138.44L286.79 138.68L286.79 134.2Q287.17 134.07 287.45 133.93Q287.72 133.79 287.96 133.62L287.96 133L283.04 133L283.04 133.62Q283.37 133.79 283.71 133.93Q284.15 134.1 284.63 134.2L284.63 143.82Q283.69 144.01 283.04 144.4L283.04 145L288.35 145L288.35 144.4Q288.06 144.2 287.66 144.08Q287.27 143.94 286.79 143.82L286.79 139.31L287.75 139.31Q288.66 140.55 289.54 141.85Q290.43 143.15 291.52 144.44L292.29 145L295.09 145L295.09 144.4L293.96 143.82Q293.39 143.2 292.78 142.48Q292.19 141.75 291.59 141.01Q290.99 140.27 290.4 139.58Q289.81 138.88 289.29 138.3Q290.29 137.29 291.2 136.28Q292.12 135.27 292.93 134.29Q293.51 134.1 293.9 133.96Q294.3 133.81 294.54 133.62L294.54 133ZM336.35 145L341.67 145L341.67 144.4Q341.22 144.1 340.09 143.82L340.09 134.05L342.32 134.05L343.38 136.93L344 136.93Q344.15 135.9 344.2 134.88Q344.27 133.86 344.29 133L333.73 133Q333.76 133.91 333.83 134.91Q333.9 135.9 334.02 136.93L334.64 136.93L335.7 134.05L337.93 134.05L337.93 143.82Q337.18 143.99 336.51 144.32Q336.43 144.36 336.35 144.4L336.35 145ZM350.99 133L345.9 133L345.9 133.62Q346.55 134.05 347.48 134.2L347.48 143.82Q347.07 143.94 346.69 144.08Q346.31 144.2 345.9 144.4L345.9 145L349.19 145L354.27 136.86L355.19 135.06L355.31 135.06L355.07 136.96L355.07 143.82Q354.43 143.98 353.87 144.27Q353.75 144.33 353.63 144.4L353.63 145L358.72 145L358.72 144.4Q358.4 144.2 357.99 144.08Q357.58 143.94 357.13 143.82L357.13 134.2Q357.95 134.05 358.72 133.62L358.72 133L355.48 133L350.34 141.2L349.4 143L349.28 143L349.55 140.77L349.55 134.2Q350.03 134.05 350.37 133.91Q350.72 133.76 350.99 133.62L350.99 133ZM378.83 137.77Q378.32 137.84 377.92 137.89L377.92 134.2Q378.8 133.96 379.35 133.62L379.35 133L374.17 133L374.17 133.62Q374.53 133.81 374.91 133.97Q375.3 134.13 375.76 134.2L375.76 143.82Q375.34 143.92 374.96 144.04Q374.58 144.16 374.17 144.4L374.17 145L376.41 145Q377.31 145 378.12 145.04Q378.92 145.09 379.57 145.09Q380.6 145.09 381.46 144.84Q382.33 144.59 382.95 144.09Q383.24 143.87 383.46 143.6Q383.73 143.27 383.92 142.87Q384.27 142.14 384.27 141.18Q384.27 139.72 383.55 138.89Q383.38 138.7 383.18 138.54Q382.09 137.7 380.29 137.7Q379.33 137.7 378.83 137.77ZM385.04 145L390.2 145L390.2 144.4Q389.79 144.2 389.41 144.08Q389.03 143.94 388.62 143.82L388.62 134.2Q389.1 134.07 389.51 133.94Q389.92 133.81 390.2 133.62L390.2 133L385.02 133L385.02 133.62Q385.55 134.03 386.46 134.2L386.46 143.82Q386.05 143.94 385.72 144.09Q385.38 144.23 385.04 144.4L385.04 145ZM216.24 141.03Q216.03 140.07 216.03 139Q216.03 136.31 216.9 135.03Q217.41 134.28 218.12 133.97Q218.6 133.76 219.18 133.76Q220.11 133.76 220.79 134.17Q220.97 134.28 221.14 134.42Q221.58 134.77 221.89 135.29Q222.32 136 222.53 136.94Q222.73 137.89 222.73 139Q222.73 141.68 221.9 142.96Q221.35 143.81 220.58 144.09Q220.21 144.23 219.78 144.23Q218.77 144.23 218.05 143.82Q217.72 143.64 217.45 143.38Q217.12 143.09 216.88 142.7Q216.44 142 216.24 141.03ZM302.43 138.37L299.77 138.61L299.77 134.05Q300.04 133.98 300.37 133.97Q300.7 133.96 300.97 133.96Q302.34 133.96 303.05 134.4Q303.17 134.48 303.27 134.57Q303.76 135.04 303.76 136.02Q303.76 136.98 303.31 137.57Q302.87 138.16 302.43 138.37ZM204.06 137.96Q204.27 136.35 204.27 134.2L207.76 134.2L207.76 143.82L202.31 143.82Q202.57 143.36 202.9 142.6Q203.24 141.85 203.54 140.71Q203.84 139.57 204.06 137.96ZM325.79 134.58Q326.39 134.2 327.23 134.2Q328.05 134.2 328.61 134.53Q328.73 134.6 328.85 134.69Q329.25 135 329.52 135.48Q329.87 136.09 330.02 136.92Q330.18 137.75 330.18 138.73Q330.18 139.93 329.94 140.93Q329.7 141.92 329.25 142.67Q328.81 143.41 328.17 143.82Q327.98 143.95 327.76 144.04Q327.29 144.23 326.74 144.23Q325.88 144.23 325.34 144.1Q324.81 143.96 324.37 143.7L324.37 136.98Q324.66 135.68 325.36 134.94Q325.56 134.73 325.79 134.58ZM365.56 134.58Q366.16 134.2 366.99 134.2Q367.81 134.2 368.38 134.53Q368.5 134.6 368.62 134.69Q369.02 135 369.28 135.48Q369.64 136.09 369.79 136.92Q369.95 137.75 369.95 138.73Q369.95 139.93 369.71 140.93Q369.47 141.92 369.02 142.67Q368.58 143.41 367.94 143.82Q367.74 143.95 367.53 144.04Q367.06 144.23 366.51 144.23Q365.65 144.23 365.11 144.1Q364.57 143.96 364.14 143.7L364.14 136.98Q364.43 135.68 365.12 134.94Q365.32 134.73 365.56 134.58ZM378.54 144.01L377.92 143.96L377.92 138.85Q378.27 138.78 378.66 138.77Q379.04 138.75 379.38 138.75Q379.89 138.75 380.34 138.88Q380.73 138.98 381.04 139.2Q381.09 139.23 381.14 139.27Q381.49 139.55 381.7 140.02Q381.9 140.48 381.9 141.16Q381.9 142.68 381.14 143.4Q380.47 144.03 379.19 144.03Q378.85 144.03 378.54 144.01ZM249.9 143.55Q249.44 143.79 248.84 143.79Q248.15 143.79 247.68 143.47Q247.53 143.37 247.4 143.23Q247.39 143.22 247.37 143.2Q246.88 142.64 246.88 141.64Q246.88 141.03 247.06 140.57Q247.09 140.51 247.11 140.46Q247.32 140.06 247.76 139.79Q248.27 139.48 249.16 139.34Q250.05 139.19 251.43 139.19L251.43 141.71Q251.36 141.95 251.17 142.3Q250.98 142.64 250.67 142.98Q250.36 143.31 249.9 143.55ZM314.03 143.55Q313.57 143.79 312.97 143.79Q312.28 143.79 311.81 143.47Q311.66 143.37 311.53 143.23Q311.51 143.22 311.5 143.2Q311 142.64 311 141.64Q311 141.03 311.19 140.57Q311.21 140.51 311.24 140.46Q311.44 140.06 311.89 139.79Q312.4 139.48 313.28 139.34Q314.17 139.19 315.56 139.19L315.56 141.71Q315.49 141.95 315.3 142.3Q315.1 142.64 314.79 142.98Q314.48 143.31 314.03 143.55ZM300.62 144.03Q300.11 144.03 299.77 143.96L299.77 139.33L301.28 139.33Q302.6 139.33 303.44 139.92Q303.73 140.12 303.92 140.39Q304.28 140.91 304.28 141.68Q304.28 142.55 303.87 143.11Q303.75 143.28 303.59 143.42Q302.89 144.03 301.48 144.03L300.62 144.03Z" fill="#888888" fill-opacity="1.000000" fill-rule="evenodd"/>
</svg>
