<svg width="70.000000" height="70.000000" viewBox="0 0 70 70" fill="none" xmlns="http://www.w3.org/2000/svg" xmlns:xlink="http://www.w3.org/1999/xlink">
	<desc>
			Created with Pixso.
	</desc>
	<defs>
		<clipPath id="clip13_2">
			<rect width="70.000000" height="70.000000" transform="matrix(-1 0 0 1 70 0)" fill="white" fill-opacity="0"/>
		</clipPath>
	</defs>
	<rect width="70.000000" height="70.000000" transform="matrix(-1 0 0 1 70 0)" fill="#FFFFFF" fill-opacity="0"/>
	<g clip-path="url(#clip13_2)">
		<path d="M35 1.09C16.26 1.09 1.09 16.26 1.09 35C1.09 53.73 16.26 68.9 35 68.9C53.73 68.9 68.9 53.73 68.9 35C68.9 16.26 53.73 1.09 35 1.09ZM50.85 41.01L35 41.01L35 50.7C35 52.17 33.22 52.91 32.19 51.87L16.57 36.16C15.92 35.51 15.92 34.49 16.57 33.85L32.19 18.12C33.23 17.08 35 17.82 35 19.29L35 28.98L50.85 28.98C51.76 28.98 52.5 29.72 52.5 30.62L52.5 39.37C52.5 40.27 51.76 41.01 50.85 41.01Z" fill="#000000" fill-opacity="1.000000" fill-rule="nonzero"/>
	</g>
</svg>
