<svg width="18.044495" height="17.955292" viewBox="0 0 18.0445 17.9553" fill="none" xmlns="http://www.w3.org/2000/svg" xmlns:xlink="http://www.w3.org/1999/xlink">
	<desc>
			Created with Pixso.
	</desc>
	<defs/>
	<path d="M15.61 17.71L12.09 14.22C11.93 14.06 11.84 13.85 11.84 13.62L11.84 13.05C10.6 14.03 9.04 14.61 7.34 14.62C3.3 14.64 0.02 11.38 0 7.34C-0.03 3.31 3.23 0.02 7.27 9.15e-5C11.31 -0.03 14.6 3.23 14.62 7.27C14.63 8.97 14.06 10.53 13.09 11.78L13.67 11.78C13.89 11.78 14.11 11.86 14.27 12.02L17.79 15.51C18.12 15.84 18.12 16.37 17.79 16.7L16.8 17.7C16.48 18.03 15.94 18.03 15.61 17.71ZM11.81 7.29C11.79 4.8 9.77 2.8 7.28 2.81C4.8 2.82 2.79 4.84 2.81 7.33C2.82 9.82 4.84 11.82 7.33 11.81C9.81 11.8 11.82 9.77 11.81 7.29Z" fill="#FFFFFF" fill-opacity="1.000000" fill-rule="nonzero"/>
</svg>
